<?xml version="1.0" encoding="UTF-8"?>
<svg version="1.1" xmlns="http://www.w3.org/2000/svg" width="512" height="512">
<path d="M0 0 C168.96 0 337.92 0 512 0 C512 168.96 512 337.92 512 512 C343.04 512 174.08 512 0 512 C0 343.04 0 174.08 0 0 Z " fill="#007159" transform="translate(0,0)"/>
<path d="M0 0 C13.2 0 26.4 0 40 0 C40.99 6.435 40.99 6.435 42 13 C44.37906987 19.34418632 47.01785936 22.76603534 53 26 C56.68660697 27.22886899 60.10062975 27.14560987 63.9375 27.125 C65.01161133 27.13080078 65.01161133 27.13080078 66.10742188 27.13671875 C69.64566511 27.13016038 72.54169009 26.86457748 76 26 C76 18.08 76 10.16 76 2 C79.774375 1.9690625 79.774375 1.9690625 83.625 1.9375 C84.40568848 1.928396 85.18637695 1.91929199 85.99072266 1.90991211 C86.6254248 1.90741455 87.26012695 1.90491699 87.9140625 1.90234375 C88.5529541 1.89710693 89.1918457 1.89187012 89.85009766 1.88647461 C92.58815676 2.03105756 95.29543235 2.54923873 98 3 C98 14.88 98 26.76 98 39 C81.51242466 47.24378767 64.83962511 52.78331807 46.375 47.875 C35.14250408 43.66032897 25.42231727 35.84463454 20 25 C19.5875 25.56847656 19.175 26.13695312 18.75 26.72265625 C9.54556832 39.0294745 -0.66359417 45.25975621 -16 48 C-19.76370567 48.25630898 -23.51029771 48.23390456 -27.28125 48.1953125 C-28.33534058 48.1924826 -29.38943115 48.18965271 -30.47546387 48.18673706 C-33.8170951 48.17560986 -37.15845081 48.15051904 -40.5 48.125 C-42.77603778 48.11496056 -45.05207978 48.1058364 -47.328125 48.09765625 C-52.88560626 48.07740304 -58.44249747 48.0382397 -64 48 C-64 33.15 -64 18.3 -64 3 C-55 1.875 -55 1.875 -51.71875 1.90234375 C-50.77418945 1.90609009 -50.77418945 1.90609009 -49.81054688 1.90991211 C-49.04806641 1.91901611 -48.28558594 1.92812012 -47.5 1.9375 C-45.025 1.958125 -42.55 1.97875 -40 2 C-40 9.92 -40 17.84 -40 26 C-36.225625 25.938125 -32.45125 25.87625 -28.5625 25.8125 C-26.80595093 25.80246948 -26.80595093 25.80246948 -25.01391602 25.79223633 C-17.30109351 25.56444797 -10.88567463 24.10014757 -5.41650391 18.32910156 C-1.14951781 12.36793887 -1.29347359 7.76084153 0 0 Z " fill="#F9FCFB" transform="translate(237,253)"/>
<path d="M0 0 C0.66773438 0.55558594 1.33546875 1.11117187 2.0234375 1.68359375 C2.93222656 2.40869141 2.93222656 2.40869141 3.859375 3.1484375 C5.0234375 4.68359375 5.0234375 4.68359375 4.76635742 6.59106445 C3.94056556 8.91701321 3.06259748 9.99303882 1.30078125 11.69921875 C0.49350586 12.49199219 0.49350586 12.49199219 -0.33007812 13.30078125 C-0.89404297 13.83960938 -1.45800781 14.3784375 -2.0390625 14.93359375 C-2.60689453 15.48789063 -3.17472656 16.0421875 -3.75976562 16.61328125 C-5.15868719 17.97693589 -6.56675364 19.33119792 -7.9765625 20.68359375 C-11.52695001 18.97591296 -14.77054629 16.94161191 -18.07421875 14.8046875 C-23.970161 11.33007677 -31.37197068 12.18824936 -37.9765625 12.68359375 C-43.45737185 14.18429155 -46.84318549 16.92550273 -49.9765625 21.68359375 C-50.30994629 22.54557373 -50.64333008 23.40755371 -50.98681641 24.2956543 C-52.9765625 26.68359375 -52.9765625 26.68359375 -54.87298584 27.17544556 C-57.42674561 27.39936554 -59.93629472 27.45512654 -62.5 27.453125 C-63.90749008 27.47097298 -63.90749008 27.47097298 -65.34341431 27.48918152 C-67.32881221 27.50573217 -69.31435745 27.5090762 -71.29980469 27.50024414 C-74.33520921 27.49611599 -77.3639432 27.56110938 -80.3984375 27.63085938 C-82.32811324 27.63834107 -84.25781007 27.64173077 -86.1875 27.640625 C-87.54553238 27.67903252 -87.54553238 27.67903252 -88.93099976 27.71821594 C-91.51605804 27.67101878 -93.53796945 27.55058628 -95.9765625 26.68359375 C-97.70051277 24.77262646 -98.77044412 22.96148009 -99.86685181 20.63798523 C-101.766756 17.29192703 -104.56453756 16.29303948 -107.9765625 14.68359375 C-108.6365625 14.35359375 -109.2965625 14.02359375 -109.9765625 13.68359375 C-111.78827348 13.53052474 -113.6049419 13.43412714 -115.421875 13.3671875 C-116.49824219 13.32529297 -117.57460937 13.28339844 -118.68359375 13.24023438 C-119.81152344 13.20091797 -120.93945312 13.16160156 -122.1015625 13.12109375 C-123.23722656 13.07791016 -124.37289062 13.03472656 -125.54296875 12.99023438 C-128.35401511 12.8839343 -131.1652724 12.78323978 -133.9765625 12.68359375 C-133.9765625 17.96359375 -133.9765625 23.24359375 -133.9765625 28.68359375 C-141.8965625 29.01359375 -149.8165625 29.34359375 -157.9765625 29.68359375 C-157.9765625 17.14359375 -157.9765625 4.60359375 -157.9765625 -8.31640625 C-151.29005814 -8.43213421 -144.60712376 -8.53138723 -137.92041016 -8.59106445 C-135.65303681 -8.61597888 -133.38574181 -8.64992323 -131.11865234 -8.69360352 C-114.48032022 -9.0058018 -97.2060284 -9.07300915 -83.9765625 2.68359375 C-80.26812525 6.44362665 -76.90721397 10.28761654 -73.9765625 14.68359375 C-73.62464844 14.11511719 -73.27273438 13.54664063 -72.91015625 12.9609375 C-65.86136976 1.93685628 -57.49329002 -5.23268784 -44.671875 -8.9921875 C-28.51946264 -10.93515884 -13.37337608 -9.97449479 0 0 Z " fill="#F9FCFB" transform="translate(330.9765625,219.31640625)"/>
<path d="M0 0 C7.8458607 -0.17850821 15.51136303 0.50954314 23.3125 1.3125 C23.97207703 1.37936005 24.63165405 1.44622009 25.31121826 1.5151062 C35.91702969 2.59416068 46.45660686 3.9309897 56.97412109 5.67236328 C58.8814434 5.98082635 60.79418445 6.25523172 62.70703125 6.52734375 C63.77308594 6.68332031 64.83914063 6.83929688 65.9375 7 C66.81277344 7.12375 67.68804687 7.2475 68.58984375 7.375 C71.48483035 8.12572586 73.57661792 9.25619067 76 11 C76.5 13.5 76.5 13.5 76 16 C75.484375 16.495 74.96875 16.99 74.4375 17.5 C73.963125 17.995 73.48875 18.49 73 19 C73.44390128 23.85517024 75.66373286 28.25453671 77.5625 32.6875 C78.21283145 34.21087915 78.86012116 35.73556155 79.50390625 37.26171875 C79.93425171 38.26658325 79.93425171 38.26658325 80.37329102 39.29174805 C81 41 81 41 81 43 C72.75 43 64.5 43 56 43 C53.36 36.07 50.72 29.14 48 22 C37.11 21.67 26.22 21.34 15 21 C14.01 24.3 13.02 27.6 12 31 C10.43928941 35.05345117 8.71734057 39.00834354 7 43 C-0.92 43 -8.84 43 -17 43 C-13.62462971 32.87388912 -13.62462971 32.87388912 -11.9140625 28.73046875 C-11.54273193 27.82699707 -11.17140137 26.92352539 -10.78881836 25.99267578 C-10.4047583 25.06696777 -10.02069824 24.14125977 -9.625 23.1875 C-9.22869385 22.22569824 -8.8323877 21.26389648 -8.42407227 20.27294922 C-7.28613231 17.51386961 -6.14400945 14.75656765 -5 12 C-4.70174316 11.28054199 -4.40348633 10.56108398 -4.09619141 9.81982422 C-2.7372441 6.54383522 -1.37291528 3.27016002 0 0 Z " fill="#FAFCFC" transform="translate(356,258)"/>
<path d="M0 0 C7.486875 -0.0825 14.97375 -0.165 22.6875 -0.25 C25.02287842 -0.28641602 27.35825684 -0.32283203 29.7644043 -0.36035156 C42.86515449 -0.47984602 55.69635032 -0.58961513 66.2890625 8.3046875 C71.52971954 13.49748466 75.10840127 18.85396037 77 26 C77 29.96 77 33.92 77 38 C64.625 38.99 64.625 38.99 52 40 C52 36.7 52 33.4 52 30 C50.69704027 25.78454206 49.87088888 24.46462371 45.96875 22.3828125 C41.56789053 20.60730709 37.2587978 20.44596418 32.5625 20.3125 C28.3240625 20.1578125 28.3240625 20.1578125 24 20 C24 27.59 24 35.18 24 43 C13 45 13 45 0 46 C0 30.82 0 15.64 0 0 Z " fill="#FAFCFB" transform="translate(89,211)"/>
<path d="M0 0 C-0.90339688 6.83491057 -5.55473907 10.6208272 -10.3125 15.25 C-16.6135685 19.35302135 -24.02915446 22.13741188 -31.54296875 22.09765625 C-32.61611328 22.09443359 -33.68925781 22.09121094 -34.79492188 22.08789062 C-35.91447266 22.07951172 -37.03402344 22.07113281 -38.1875 22.0625 C-39.31865234 22.05798828 -40.44980469 22.05347656 -41.61523438 22.04882812 C-44.41017876 22.03703511 -47.20509599 22.01909957 -50 22 C-50 29.26 -50 36.52 -50 44 C-57.92 44 -65.84 44 -74 44 C-74 36.08 -74 28.16 -74 20 C-76.475 19.01 -76.475 19.01 -79 18 C-80.875 16.125 -80.875 16.125 -82 14 C-81.76391602 11.96875 -81.76391602 11.96875 -81 10 C-73.76361449 6.20386334 -65.56734185 5.87159255 -57.5625 5 C-56.08729841 4.83261923 -54.61220138 4.6643145 -53.13720703 4.49511719 C-50.90267406 4.23922387 -48.66806021 3.98438525 -46.43292236 3.73382568 C-41.88300898 3.22310184 -37.3410013 2.67024403 -32.80078125 2.078125 C-21.79941811 0.65171997 -11.10404585 -0.4874947 0 0 Z " fill="#FAFCFC" transform="translate(163,257)"/>
<path d="M0 0 C1.00023193 0.00523682 2.00046387 0.01047363 3.03100586 0.01586914 C4.1105957 0.0190918 5.19018555 0.02231445 6.30249023 0.02563477 C8.00695312 0.03820312 8.00695312 0.03820312 9.74584961 0.05102539 C11.45611328 0.05779297 11.45611328 0.05779297 13.20092773 0.06469727 C16.02845312 0.07652792 18.85587601 0.09301129 21.68334961 0.11352539 C24.39424163 6.48347936 27.09958493 12.85576834 29.80102539 19.22973633 C30.72128777 21.39922806 31.64283397 23.56817567 32.56567383 25.73657227 C33.88950568 28.84779041 35.20875576 31.96091602 36.52709961 35.07446289 C37.15050232 36.53545914 37.15050232 36.53545914 37.78649902 38.02597046 C38.16689331 38.92675323 38.5472876 39.82753601 38.93920898 40.75561523 C39.27674194 41.55059418 39.6142749 42.34557312 39.96203613 43.16464233 C40.68334961 45.11352539 40.68334961 45.11352539 40.68334961 47.11352539 C38.10917832 46.91749631 35.54411073 46.69118923 32.97631836 46.42211914 C30.73482261 46.21206201 28.48468428 46.08230308 26.23413086 46.02368164 C22.69715097 45.79379811 19.95850409 45.48683155 16.68334961 44.11352539 C14.02422897 40.36734285 12.88529132 36.50935916 11.68334961 32.11352539 C11.03744403 30.43870355 10.37788097 28.76877414 9.68334961 27.11352539 C9.34561523 27.86118164 9.00788086 28.60883789 8.65991211 29.37915039 C8.21389648 30.36399414 7.76788086 31.34883789 7.30834961 32.36352539 C6.86749023 33.33805664 6.42663086 34.31258789 5.97241211 35.31665039 C4.91696823 37.60664378 3.82791026 39.8671914 2.68334961 42.11352539 C0.3080681 41.97149202 -2.0668029 41.82500927 -4.44165039 41.67602539 C-5.10680664 41.63670898 -5.77196289 41.59739258 -6.45727539 41.55688477 C-10.46683856 41.30137339 -14.36659235 40.84570126 -18.31665039 40.11352539 C-17.68875584 36.40186855 -16.64027426 33.18926419 -15.17211914 29.72680664 C-14.7422168 28.70522461 -14.31231445 27.68364258 -13.86938477 26.63110352 C-13.41885742 25.57342773 -12.96833008 24.51575195 -12.50415039 23.42602539 C-11.62195696 21.3390744 -10.7404394 19.25183757 -9.85961914 17.16430664 C-9.43213379 16.1544873 -9.00464844 15.14466797 -8.56420898 14.10424805 C-7.02412628 10.41226896 -5.55526549 6.69463152 -4.10693359 2.96582031 C-2.9022429 0.14222183 -2.9022429 0.14222183 0 0 Z " fill="#F9FCFB" transform="translate(378.316650390625,210.886474609375)"/>
</svg>
